<svg width="93" height="87" viewBox="0 0 93 87" fill="none" xmlns="http://www.w3.org/2000/svg">
<circle cx="33.9429" cy="36.8291" r="6.82918" fill="#C81912"/>
<circle cx="79" cy="27" r="13" fill="#C81912"/>
<path fill-rule="evenodd" clip-rule="evenodd" d="M32.5511 49.4389C32.4191 48.7781 31.9357 48.2427 31.2918 48.0441C30.5686 47.8211 29.7827 48.0647 29.3124 48.6576L26.6097 52.0647C24.7585 54.3983 21.7904 55.5017 18.8235 55.2372C11.5519 54.5888 4.04597 55.1701 -3.42021 57.1407C-37.9518 66.2549 -58.5567 101.637 -49.4425 136.168C-40.3282 170.7 -4.9463 191.305 29.5853 182.191C64.1169 173.077 84.7218 137.695 75.6076 103.163C70.3813 83.3616 56.5177 68.1397 39.13 60.4747C36.2342 59.1982 34.0008 56.6967 33.3809 53.5934L32.5511 49.4389Z" fill="#C81912"/>
<circle cx="21.5475" cy="4.54749" r="3.49096" transform="rotate(-22.0902 21.5475 4.54749)" fill="#C81912"/>
</svg>
