<svg width="78" height="78" viewBox="0 0 78 78" fill="none" xmlns="http://www.w3.org/2000/svg">
<path fill-rule="evenodd" clip-rule="evenodd" d="M47.8056 67.6794C48.1345 67.4706 48.4934 67.3124 48.8666 67.2006C63.0119 62.9621 73.3201 49.8448 73.3201 34.32C73.3201 15.3656 57.9545 0 39.0001 0C20.0456 0 4.68005 15.3656 4.68005 34.32C4.68005 47.8227 12.4779 59.5042 23.8159 65.1068C23.8287 65.1132 23.8235 65.1326 23.8092 65.1315C23.8001 65.1308 23.7931 65.1396 23.7958 65.1483L26.9038 74.9903C27.6948 77.4949 30.6439 78.5705 32.8615 77.1631L47.8056 67.6794Z" fill="#C81912"/>
<path d="M48.8134 27.6379C49.6418 26.8095 49.6418 25.4664 48.8134 24.638L48.362 24.1865C47.5336 23.3581 46.1904 23.3581 45.362 24.1865L39 30.5486L32.6379 24.1865C31.8095 23.3581 30.4664 23.3581 29.638 24.1865L29.1865 24.638C28.3581 25.4664 28.3581 26.8095 29.1865 27.6379L35.5486 34L29.1865 40.3621C28.3581 41.1905 28.3581 42.5336 29.1865 43.362L29.638 43.8135C30.4664 44.6419 31.8095 44.6419 32.6379 43.8135L39 37.4514L45.362 43.8135C46.1904 44.6419 47.5336 44.6419 48.362 43.8135L48.8134 43.362C49.6419 42.5336 49.6418 41.1905 48.8134 40.3621L42.4514 34L48.8134 27.6379Z" fill="white"/>
</svg>
